<svg xmlns="http://www.w3.org/2000/svg" viewBox="0 0 1600 900" role="img" aria-labelledby="t d">
<title id="t">End of Day Control Center</title><desc id="d">Source-derived from the current DPN Aqua Labs PySide6 application source. Not a runtime screenshot.</desc>
<defs><linearGradient id="bg" x1="0" x2="1"><stop stop-color="#07070b"/><stop offset="1" stop-color="#120a18"/></linearGradient><pattern id="g" width="36" height="36" patternUnits="userSpaceOnUse"><path d="M36 0H0V36" fill="none" stroke="#8b5cf6" stroke-opacity=".035"/></pattern><style>.u{font-family:'Segoe UI',Arial;fill:#f5f3ff}.m{fill:#9693a6}.p{fill:#b99cff}.g2{fill:#86efac}.a{fill:#fbbf24}.r{fill:#fca5a5}.t{font:800 10px Consolas;letter-spacing:1px}.b{font-size:13px}.l{font-size:14px;font-weight:800}.h{font-size:26px;font-weight:900}.n{font-size:26px;font-weight:900}</style></defs>
<rect width="1600" height="900" fill="url(#bg)"/><rect width="1600" height="900" fill="url(#g)"/>
<rect width="268" height="900" fill="#09090d"/><rect x="267" width="1" height="900" fill="#30283d"/><circle cx="42" cy="46" r="25" fill="#17111f" stroke="#8b5cf6" stroke-width="2"/><circle cx="42" cy="46" r="13" fill="#8b5cf6" opacity=".85"/><text x="78" y="42" class="u l">DPN AQUA LABS</text><text x="78" y="61" class="u t m">RETAIL • LIVESTOCK • SYSTEMS</text>
<text x="20" y="111" class="u t m">WORKSPACE</text><g class="u b m"><text x="31" y="145">Dashboard</text><text x="31" y="176">POS Register</text><text x="31" y="207">Customers</text><text x="31" y="238">Orders &amp; Deposits</text><text x="31" y="269">Loyalty &amp; Credit</text><text x="31" y="300">Inventory</text><text x="31" y="331">Livestock</text><text x="31" y="362">Tanks</text><text x="31" y="393">Purchasing</text><text x="31" y="424">Suppliers</text><text x="31" y="455">Cash Drawer</text><text x="31" y="486">Returns</text><text x="31" y="517">Time Clock</text><text x="31" y="548">End of Day</text><text x="31" y="579">Reports</text><text x="31" y="610">Tank Control</text><text x="31" y="641">Emergency Center</text><text x="31" y="672">Maintenance</text><text x="31" y="703">Store Network</text></g>
<rect x="270" y="4" width="1330" height="66" fill="#0e0e14" stroke="#252530"/><text x="300" y="44" class="u l">DPN Aqua Labs / Retail Operations</text><rect x="1110" y="19" width="330" height="36" rx="8" fill="#0a0a0f" stroke="#32323d"/><text x="1130" y="43" class="u b m">Search products, customers, sales…</text>
<text x="310" y="113" class="u t p">STORE CLOSE</text><text x="310" y="149" class="u h">End of Day Control Center</text><text x="310" y="176" class="u b m">A hard-gated store close: drawers reconciled, shifts closed, card approvals verified, exceptions acknowledged and final PDF closeout generated</text>
<rect x="310" y="204" width="1240" height="116" rx="14" fill="#17111f" stroke="#604582"/><text x="336" y="236" class="u t p">BUSINESS DAY CLOSE CONTROL</text><text x="336" y="272" class="u h">RUNNING READINESS CHECK</text><text x="336" y="299" class="u b m">Checking drawers, employees, card settlements and operational exceptions…</text><rect x="1355" y="239" width="167" height="38" rx="7" fill="#17171f" stroke="#3d3446"/><text x="1380" y="263" class="u t">REFRESH READINESS</text>
<g class="u"><rect x="310" y="343" width="168" height="102" rx="12" fill="#121217" stroke="#292934"/><text x="329" y="371" class="t m">REVENUE</text><text x="329" y="411" class="n">$—</text><rect x="489" y="343" width="168" height="102" rx="12" fill="#121217" stroke="#292934"/><text x="508" y="371" class="t m">REFUNDS</text><text x="508" y="411" class="n">$—</text><rect x="668" y="343" width="168" height="102" rx="12" fill="#121217" stroke="#292934"/><text x="687" y="371" class="t m">TAX</text><text x="687" y="411" class="n">$—</text><rect x="847" y="343" width="168" height="102" rx="12" fill="#121217" stroke="#292934"/><text x="866" y="371" class="t m">TRANSACTIONS</text><text x="866" y="411" class="n">—</text><rect x="1026" y="343" width="168" height="102" rx="12" fill="#121217" stroke="#292934"/><text x="1045" y="371" class="t m">GROSS PROFIT</text><text x="1045" y="411" class="n">$—</text><rect x="1205" y="343" width="168" height="102" rx="12" fill="#121217" stroke="#292934"/><text x="1224" y="371" class="t m">TENDER +/-</text><text x="1224" y="411" class="n">$—</text><rect x="1384" y="343" width="166" height="102" rx="12" fill="#121217" stroke="#292934"/><text x="1403" y="371" class="t m">DRAWER +/-</text><text x="1403" y="411" class="n">$—</text></g>
<rect x="310" y="470" width="1240" height="358" rx="14" fill="#101016" stroke="#292934"/><text x="334" y="502" class="u l">Closeout Readiness</text><g class="u b"><text x="334" y="544">Register drawers reconciled</text><text x="1420" y="544" class="m">CHECK</text><text x="334" y="583">Employee shifts and breaks closed</text><text x="1420" y="583" class="m">CHECK</text><text x="334" y="622">Card approvals verified</text><text x="1420" y="622" class="m">CHECK</text><text x="334" y="661">Operational exceptions acknowledged</text><text x="1420" y="661" class="m">CHECK</text><text x="334" y="700">Tender and drawer variance reviewed</text><text x="1420" y="700" class="m">CHECK</text></g><rect x="334" y="733" width="300" height="50" rx="8" fill="#09090c" stroke="#32323d"/><text x="351" y="754" class="u t m">COUNTED CASH</text><text x="351" y="775" class="u b">$—</text><rect x="651" y="733" width="520" height="50" rx="8" fill="#09090c" stroke="#32323d"/><text x="668" y="754" class="u t m">CLOSEOUT NOTES</text><text x="668" y="775" class="u b m">Management notes</text><rect x="1190" y="733" width="330" height="50" rx="8" fill="#8b5cf6"/><text x="1262" y="764" class="u t">POST END-OF-DAY CLOSEOUT</text>
<rect x="1010" y="858" width="540" height="28" rx="6" fill="#191322" stroke="#684a8d"/><text x="1028" y="877" class="u t p">SOURCE-DERIVED UI VIEW • CURRENT AQUA LABS SOURCE • NOT RUNTIME CAPTURE</text>
</svg>