<svg xmlns="http://www.w3.org/2000/svg" viewBox="0 0 1600 900" role="img" aria-labelledby="t d">
<title id="t">Death the Developer desktop studio source-derived interface view</title><desc id="d">Source-derived from current Tk desktop application layout. Not a runtime screenshot.</desc>
<defs><linearGradient id="b" x1="0" y1="0" x2="1" y2="1"><stop stop-color="#08070b"/><stop offset=".55" stop-color="#120b19"/><stop offset="1" stop-color="#08070b"/></linearGradient><pattern id="g" width="34" height="34" patternUnits="userSpaceOnUse"><path d="M34 0H0V34" fill="none" stroke="#9b5cff" stroke-opacity=".035"/></pattern><style>.ui{font-family:'Segoe UI',Arial,sans-serif;fill:#f3efff}.mono{font-family:Consolas,monospace}.m{fill:#a99dbb}.purple{fill:#b98cff}.green{fill:#38d996}.red{fill:#ff607d}.tiny{font:800 10px Consolas;letter-spacing:1px}.body{font-size:13px}.label{font-size:14px;font-weight:750}.head{font-size:24px;font-weight:900}.code{font:12px Consolas;fill:#d9d0e7}</style></defs>
<rect width="1600" height="900" fill="url(#b)"/><rect width="1600" height="900" fill="url(#g)"/>
<!-- top -->
<rect x="8" y="8" width="1584" height="58" rx="8" fill="#0e0b14" stroke="#302341"/><circle cx="36" cy="37" r="19" fill="#26153a" stroke="#9b5cff"/><text x="25" y="42" class="ui tiny purple">DTD</text><text x="66" y="34" class="ui label">DPN</text><text x="104" y="34" class="ui label purple">DEATH THE DEVELOPER</text><text x="104" y="53" class="ui tiny m">LOCAL-FIRST AUTONOMOUS DEVELOPMENT STUDIO</text><text x="485" y="42" class="ui body m">No workspace</text>
<g class="ui tiny"><rect x="1191" y="20" width="80" height="34" rx="6" fill="#151020" stroke="#302341"/><text x="1210" y="41">Save All</text><rect x="1280" y="20" width="64" height="34" rx="6" fill="#6d35c9"/><text x="1301" y="41">Run</text><rect x="1353" y="20" width="126" height="34" rx="6" fill="#151020" stroke="#302341"/><text x="1370" y="41">Open Workspace</text><rect x="1488" y="20" width="88" height="34" rx="6" fill="#151020" stroke="#302341"/><text x="1510" y="41">Settings</text></g>

<!-- explorer -->
<rect x="8" y="76" width="275" height="790" rx="8" fill="#0e0b14" stroke="#302341"/><text x="24" y="108" class="ui label">PROJECT</text><text x="248" y="108" class="ui label purple">↻</text><rect x="20" y="122" width="250" height="33" rx="5" fill="#151020" stroke="#302341"/><text x="33" y="144" class="ui body m">Filter files…</text>
<g class="ui body"><text x="29" y="190" class="purple">▾ dpn-project</text><text x="48" y="220">▸ src</text><text x="48" y="250">▸ tests</text><text x="48" y="280">▸ docs</text><text x="48" y="310">README.md</text><rect x="20" y="327" width="250" height="34" rx="5" fill="#21152f"/><text x="48" y="350">app.py</text></g><g class="ui tiny"><rect x="20" y="793" width="55" height="29" rx="5" fill="#151020" stroke="#302341"/><text x="29" y="812">+ File</text><rect x="82" y="793" width="65" height="29" rx="5" fill="#151020" stroke="#302341"/><text x="90" y="812">+ Folder</text><rect x="157" y="793" width="113" height="29" rx="5" fill="#151020" stroke="#302341"/><text x="168" y="812">Terminal Here</text></g><text x="20" y="848" class="ui tiny m">RIGHT-CLICK FOR ADVANCED ACTIONS</text>

<!-- workspace tabs -->
<rect x="293" y="76" width="858" height="790" rx="8" fill="#0d0a12" stroke="#302341"/><g class="ui tiny"><rect x="307" y="88" width="58" height="31" rx="5" fill="#6d35c9"/><text x="320" y="108">Editor</text><text x="383" y="108" class="m">Preview</text><text x="443" y="108" class="m">Terminal</text><text x="510" y="108" class="m">Research</text><text x="580" y="108" class="m">Project Spec</text><text x="666" y="108" class="m">Autonomous Build</text><text x="778" y="108" class="m">GitHub</text><text x="830" y="108" class="m">Neural Forge</text><text x="907" y="108" class="m">Automations</text><text x="990" y="108" class="m">Memory</text><text x="1045" y="108" class="m">Audit</text><text x="1091" y="108" class="m">Browser</text></g>
<rect x="307" y="132" width="830" height="43" fill="#100c16" stroke="#241c30"/><text x="323" y="159" class="ui body m">app.py</text><g class="ui tiny"><text x="607" y="159" class="m">New</text><text x="650" y="159" class="m">Save</text><text x="694" y="159" class="m">Save All</text><text x="749" y="159" class="m">Undo</text><text x="791" y="159" class="m">Redo</text><text x="835" y="159" class="m">Find</text><text x="872" y="159" class="m">Go To</text><text x="917" y="159" class="purple">Ask Death</text><text x="986" y="159" class="m">Preview</text><text x="1040" y="159" class="m">Run</text><text x="1073" y="159" class="m">Close</text></g>
<rect x="307" y="183" width="830" height="655" fill="#08070b" stroke="#211729"/><rect x="307" y="183" width="48" height="655" fill="#0b0910"/><g class="ui tiny m"><text x="328" y="213">1</text><text x="328" y="239">2</text><text x="328" y="265">3</text><text x="328" y="291">4</text><text x="328" y="317">5</text><text x="328" y="343">6</text><text x="328" y="369">7</text><text x="328" y="395">8</text></g>
<g class="code"><text x="373" y="213" fill="#b98cff">class</text><text x="409" y="213"> DeathApp(tk.Tk):</text><text x="373" y="239" fill="#54a6ff">    def</text><text x="413" y="239"> _build(self):</text><text x="373" y="265">        # project explorer + editor + agent workspace</text><text x="373" y="291">        self.nb.add(self.editor_tab, text='Editor')</text><text x="373" y="317">        self.nb.add(self.preview_tab, text='Preview')</text><text x="373" y="343">        self.nb.add(self.terminal_tab, text='Terminal')</text><text x="373" y="369">        self.nb.add(self.github_tab, text='GitHub')</text><text x="373" y="395">        self.nb.add(self.browser_tab, text='Browser')</text></g>
<rect x="375" y="457" width="690" height="195" rx="9" fill="#0d0b12" stroke="#302341"/><text x="396" y="485" class="ui tiny purple">EDITOR WORKSPACE</text><text x="396" y="516" class="ui head">Multi-file development surface</text><text x="396" y="545" class="ui body m">Editor • Preview • Terminal • Research • Project Spec • Autonomous Build</text><text x="396" y="571" class="ui body m">GitHub • Neural Forge • Automations • Memory • Audit • Browser</text><rect x="396" y="597" width="120" height="32" rx="6" fill="#6d35c9"/><text x="418" y="618" class="ui tiny">ASK DEATH</text><rect x="526" y="597" width="110" height="32" rx="6" fill="#151020" stroke="#302341"/><text x="551" y="618" class="ui tiny">PREVIEW</text><rect x="646" y="597" width="90" height="32" rx="6" fill="#151020" stroke="#302341"/><text x="675" y="618" class="ui tiny">RUN</text>

<!-- chat -->
<rect x="1161" y="76" width="431" height="790" rx="8" fill="#0e0b14" stroke="#302341"/><text x="1182" y="109" class="ui tiny purple">DEATH // AGENT CHANNEL</text><text x="1182" y="137" class="ui head">Build with the workspace.</text><rect x="1180" y="160" width="393" height="520" rx="8" fill="#08070b" stroke="#251a31"/><text x="1202" y="195" class="ui tiny m">AGENT ACTIVITY</text><rect x="1202" y="218" width="338" height="85" rx="8" fill="#151020"/><text x="1220" y="244" class="ui body">Ready.</text><text x="1220" y="268" class="ui body m">Workspace context and tool activity appear here.</text><rect x="1202" y="612" width="338" height="45" rx="7" fill="#151020" stroke="#302341"/><text x="1220" y="640" class="ui body m">Ask Death to build, debug, research…</text><rect x="1180" y="698" width="393" height="132" rx="8" fill="#0b0910" stroke="#251a31"/><text x="1202" y="726" class="ui tiny m">STATUS</text><text x="1202" y="755" class="ui label green">READY</text><text x="1202" y="784" class="ui body m">Local engine event sink active</text>

<rect x="8" y="873" width="1584" height="19" fill="#050506"/><text x="18" y="887" class="ui tiny m">Ready</text><text x="1003" y="887" class="ui tiny purple">SOURCE-DERIVED UI VIEW • CURRENT TK DESKTOP LAYOUT • NOT RUNTIME CAPTURE</text>
</svg>