<svg xmlns="http://www.w3.org/2000/svg" viewBox="0 0 1600 900" role="img" aria-labelledby="t d">
<title id="t">DPN Service Desk I.T. Ticket Queue source-derived interface</title><desc id="d">Derived from the current Service Desk admin-desk React component. Not live ticket data.</desc>
<defs><linearGradient id="bg"><stop stop-color="#050507"/><stop offset="1" stop-color="#16070b"/></linearGradient><pattern id="g" width="36" height="36" patternUnits="userSpaceOnUse"><path d="M36 0H0V36" fill="none" stroke="#e50914" stroke-opacity=".04"/></pattern><style>.u{font-family:'Segoe UI',Arial;fill:#f7f4f5}.m{fill:#92888d}.r{fill:#ff5369}.g{fill:#6de39a}.a{fill:#f1c565}.t{font:800 10px Consolas;letter-spacing:1px}.b{font-size:13px}.l{font-size:14px;font-weight:800}.h{font-size:27px;font-weight:900}.n{font-size:25px;font-weight:900}</style></defs>
<rect width="1600" height="900" fill="url(#bg)"/><rect width="1600" height="900" fill="url(#g)"/>
<rect x="18" y="18" width="1564" height="864" rx="18" fill="#09090c" stroke="#41151e"/>
<header><circle cx="58" cy="58" r="26" fill="#2d080f" stroke="#e50914"/><text x="47" y="55" class="u t r">IT</text><text x="43" y="69" class="u t">DPN</text><text x="99" y="47" class="u t r">DPN TECHNOLOGY // SERVICE DESK</text><text x="99" y="75" class="u h">I.T. Ticket Queue</text></header>
<g class="u"><rect x="1054" y="34" width="104" height="55" rx="7" fill="#101014" stroke="#342027"/><text x="1070" y="54" class="t m">OPEN</text><text x="1070" y="78" class="n">—</text><rect x="1168" y="34" width="104" height="55" rx="7" fill="#101014" stroke="#342027"/><text x="1184" y="54" class="t m">NEW</text><text x="1184" y="78" class="n">—</text><rect x="1282" y="34" width="104" height="55" rx="7" fill="#101014" stroke="#342027"/><text x="1298" y="54" class="t r">URGENT</text><text x="1298" y="78" class="n r">—</text><rect x="1396" y="34" width="104" height="55" rx="7" fill="#101014" stroke="#342027"/><text x="1412" y="54" class="t m">CLOSED</text><text x="1412" y="78" class="n">—</text><rect x="1510" y="34" width="52" height="55" rx="7" fill="#2d080f" stroke="#6b1b29"/><text x="1524" y="67" class="u l r">↻</text></g>

<rect x="42" y="112" width="1518" height="73" rx="10" fill="#0d0d11" stroke="#342027"/><text x="61" y="135" class="u t m">YOUR I.T. NAME</text><rect x="61" y="144" width="250" height="28" rx="5" fill="#08080b" stroke="#322027"/><text x="75" y="163" class="u b m">Technician name</text><text x="338" y="135" class="u t m">SEARCH</text><rect x="338" y="144" width="611" height="28" rx="5" fill="#08080b" stroke="#322027"/><text x="352" y="163" class="u b m">Ticket #, employee, PC, issue, technician…</text><rect x="1056" y="136" width="160" height="37" rx="6" fill="#102116" stroke="#2e6545"/><text x="1090" y="159" class="u t g">ENABLE ALERTS</text><rect x="1230" y="136" width="170" height="37" rx="6" fill="#111116" stroke="#342027"/><text x="1261" y="159" class="u t">↓ BACKUP TICKETS</text><rect x="1414" y="136" width="126" height="37" rx="6" fill="#2d080f" stroke="#6b1b29"/><text x="1444" y="159" class="u t r">SOURCE VIEW</text>

<g class="u t"><rect x="42" y="203" width="1518" height="46" rx="7" fill="#0b0b0f" stroke="#2d1c22"/><text x="64" y="232" class="r">OPEN</text><text x="128" y="232" class="m">RESOLVED</text><text x="226" y="232" class="m">CLOSED</text><text x="1290" y="232" class="m">SORT</text><text x="1332" y="232">Priority ▾</text><text x="1452" y="232" class="g">● LIVE • 15 SEC REFRESH</text></g>

<rect x="42" y="267" width="662" height="581" rx="12" fill="#0d0d11" stroke="#342027"/><text x="63" y="297" class="u t r">QUEUE</text>
<rect x="61" y="318" width="624" height="114" rx="9" fill="#101014" stroke="#3a2027"/><circle cx="82" cy="343" r="5" fill="#ff5369"/><text x="99" y="348" class="u l">Example issue title</text><text x="583" y="348" class="u t r">URGENT</text><text x="99" y="375" class="u b m">Requester • Department • PC</text><text x="99" y="406" class="u t m">DPN-0000 • SOURCE VIEW • New</text><g class="u t"><rect x="470" y="385" width="59" height="29" rx="5" fill="#111116" stroke="#342027"/><text x="483" y="404">TAKE</text><rect x="538" y="385" width="61" height="29" rx="5" fill="#111116" stroke="#342027"/><text x="550" y="404">START</text><rect x="608" y="385" width="61" height="29" rx="5" fill="#351016" stroke="#66202a"/><text x="618" y="404" class="r">CLOSE</text></g>
<rect x="61" y="451" width="624" height="86" rx="9" fill="#0a0a0d" stroke="#25191e"/><text x="84" y="483" class="u l">Ticket rows</text><text x="84" y="511" class="u b m">Priority sorting • unread state • quick technician actions</text>

<rect x="724" y="267" width="836" height="581" rx="12" fill="#0d0d11" stroke="#342027"/><text x="748" y="297" class="u t r">TICKET DETAIL</text><text x="748" y="333" class="u h">Select a ticket</text><text x="748" y="360" class="u b m">Choose a request from the queue to view and update it.</text>
<g class="u"><rect x="748" y="395" width="183" height="61" rx="8" fill="#101014" stroke="#342027"/><text x="765" y="418" class="t m">REQUESTER</text><text x="765" y="442" class="b">—</text><rect x="943" y="395" width="183" height="61" rx="8" fill="#101014" stroke="#342027"/><text x="960" y="418" class="t m">COMPUTER</text><text x="960" y="442" class="b">—</text><rect x="1138" y="395" width="183" height="61" rx="8" fill="#101014" stroke="#342027"/><text x="1155" y="418" class="t m">DEPARTMENT</text><text x="1155" y="442" class="b">—</text><rect x="1333" y="395" width="203" height="61" rx="8" fill="#101014" stroke="#342027"/><text x="1350" y="418" class="t m">CATEGORY</text><text x="1350" y="442" class="b">General I.T.</text></g>
<rect x="748" y="478" width="788" height="100" rx="9" fill="#09090c" stroke="#2b1c21"/><text x="766" y="507" class="u t m">PROBLEM DESCRIPTION</text><text x="766" y="539" class="u b m">Ticket description appears here.</text>
<g class="u t"><rect x="748" y="600" width="228" height="37" rx="6" fill="#e50914"/><text x="780" y="623">TAKE TICKET / ASSIGN TO ME</text><rect x="988" y="600" width="190" height="37" rx="6" fill="#111116" stroke="#342027"/><text x="1020" y="623">MARK IN PROGRESS</text></g>
<text x="748" y="674" class="u t m">STATUS</text><rect x="748" y="686" width="290" height="38" rx="6" fill="#09090c" stroke="#342027"/><text x="765" y="711" class="u b">New / Assigned / In Progress / Waiting / Resolved / Closed</text><text x="1062" y="674" class="u t m">I.T. TECHNICIAN NAME</text><rect x="1062" y="686" width="474" height="38" rx="6" fill="#09090c" stroke="#342027"/><text x="1079" y="711" class="u b m">Technician</text>
<rect x="748" y="745" width="788" height="76" rx="8" fill="#10090c" stroke="#45151e"/><text x="766" y="773" class="u t r">WORKFLOW</text><text x="766" y="801" class="u b m">Take • Start • Update technician note • Resolution summary • Close • PDF record</text>
<rect x="882" y="850" width="678" height="30" rx="6" fill="#180a0e" stroke="#6b1c2b"/><text x="901" y="870" class="u t r">SOURCE-DERIVED UI VIEW • CURRENT SERVICE DESK ADMIN COMPONENT • NOT LIVE TICKETS</text>
</svg>